<svg width="282" height="156" viewBox="0 0 282 156" fill="none" xmlns="http://www.w3.org/2000/svg">
<rect width="282" height="156" rx="20" fill="#0D2855"/>
<path d="M128.706 131.472C117.532 159.048 195.152 114.712 199.582 72" stroke="#E64040" stroke-opacity="0.4" stroke-width="3"/>
<path d="M19.7143 111.798C-7.57036 162.717 149.406 133.159 167.251 43" stroke="#E6AD40" stroke-opacity="0.4" stroke-width="3"/>
<path d="M196.542 141.784C192.742 157.129 232.326 137.802 230.986 112.882" stroke="#86DBFF" stroke-opacity="0.4" stroke-width="3"/>
<path d="M227.967 134.755H223.673L226.359 118.298H230.652L227.967 134.755Z" fill="white"/>
<path d="M243.53 118.701C242.684 118.368 241.34 118 239.68 118C235.44 118 232.454 120.241 232.436 123.444C232.401 125.808 234.573 127.121 236.199 127.909C237.86 128.714 238.424 129.24 238.424 129.958C238.407 131.06 237.082 131.568 235.846 131.568C234.132 131.568 233.213 131.306 231.818 130.693L231.252 130.43L230.651 134.124C231.658 134.579 233.514 134.982 235.44 135C239.945 135 242.878 132.794 242.912 129.38C242.929 127.507 241.782 126.071 239.308 124.898C237.807 124.145 236.887 123.638 236.887 122.867C236.905 122.167 237.665 121.449 239.36 121.449C240.756 121.414 241.781 121.747 242.558 122.079L242.947 122.254L243.53 118.701V118.701V118.701Z" fill="white"/>
<path fill-rule="evenodd" clip-rule="evenodd" d="M251.215 118.298H254.536L258 134.755H254.025C254.025 134.755 253.636 132.864 253.512 132.286H248C247.841 132.723 247.099 134.755 247.099 134.755H242.594L248.971 119.664C249.413 118.596 250.191 118.298 251.215 118.298ZM250.951 124.32C250.951 124.32 249.59 127.979 249.237 128.925H252.805C252.629 128.102 251.816 124.163 251.816 124.163L251.516 122.745C251.389 123.11 251.207 123.612 251.083 123.951C251 124.18 250.944 124.335 250.951 124.32Z" fill="white"/>
<path d="M220.087 118.298L215.883 129.52L215.423 127.244C214.646 124.618 212.208 121.765 209.487 120.346L213.339 134.737H217.879L224.627 118.298H220.087V118.298V118.298Z" fill="white"/>
<path d="M211.978 118.298H205.071L205 118.631C210.388 119.996 213.957 123.288 215.423 127.245L213.922 119.682C213.674 118.631 212.915 118.333 211.978 118.298V118.298Z" fill="white"/>
</svg>
