<svg width="16" height="14" viewBox="0 0 16 14" fill="none" xmlns="http://www.w3.org/2000/svg">
<path d="M2.52632 0H13.4737C14.1437 0 14.7863 0.294999 15.2601 0.820101C15.7338 1.3452 16 2.05739 16 2.8V11.2C16 11.9426 15.7338 12.6548 15.2601 13.1799C14.7863 13.705 14.1437 14 13.4737 14H2.52632C1.8563 14 1.21372 13.705 0.739941 13.1799C0.266165 12.6548 0 11.9426 0 11.2V2.8C0 2.05739 0.266165 1.3452 0.739941 0.820101C1.21372 0.294999 1.8563 0 2.52632 0ZM2.52632 0.933333C2.11537 0.933333 1.73811 1.09667 1.44589 1.36827L8 6.08533L14.5541 1.36827C14.2514 1.08679 13.8688 0.932759 13.4737 0.933333H2.52632ZM8 7.19787L0.954947 2.128C0.880241 2.34236 0.841983 2.5702 0.842105 2.8V11.2C0.842105 11.6951 1.01955 12.1699 1.3354 12.5199C1.65125 12.87 2.07964 13.0667 2.52632 13.0667H13.4737C13.9204 13.0667 14.3488 12.87 14.6646 12.5199C14.9805 12.1699 15.1579 11.6951 15.1579 11.2V2.8C15.1579 2.56293 15.1183 2.33613 15.0451 2.128L8 7.19693V7.19787Z" fill="#64D9C5"/>
</svg>
