<svg width="14" height="18" viewBox="0 0 14 18" fill="none" xmlns="http://www.w3.org/2000/svg">
<path d="M11.2 5.69095C11.9426 5.69095 12.6548 5.9668 13.1799 6.4578C13.705 6.94881 14 7.61475 14 8.30913V15.291C14 15.9853 13.705 16.6513 13.1799 17.1423C12.6548 17.6333 11.9426 17.9091 11.2 17.9091H2.8C2.05739 17.9091 1.3452 17.6333 0.820101 17.1423C0.294999 16.6513 0 15.9853 0 15.291V8.30913C0 7.61475 0.294999 6.94881 0.820101 6.4578C1.3452 5.9668 2.05739 5.69095 2.8 5.69095V4.38186C2.8 3.34028 3.2425 2.34137 4.03015 1.60486C4.8178 0.868355 5.88609 0.45459 7 0.45459C8.11391 0.45459 9.1822 0.868355 9.96985 1.60486C10.7575 2.34137 11.2 3.34028 11.2 4.38186V5.69095ZM2.8 6.56368C2.30493 6.56368 1.83014 6.74758 1.48007 7.07491C1.13 7.40225 0.933333 7.84621 0.933333 8.30913V15.291C0.933333 15.7539 1.13 16.1978 1.48007 16.5252C1.83014 16.8525 2.30493 17.0364 2.8 17.0364H11.2C11.6951 17.0364 12.1699 16.8525 12.5199 16.5252C12.87 16.1978 13.0667 15.7539 13.0667 15.291V8.30913C13.0667 7.84621 12.87 7.40225 12.5199 7.07491C12.1699 6.74758 11.6951 6.56368 11.2 6.56368H2.8ZM10.2667 5.69095V4.38186C10.2667 3.57175 9.9225 2.79481 9.30988 2.22197C8.69726 1.64913 7.86637 1.32732 7 1.32732C6.13363 1.32732 5.30274 1.64913 4.69012 2.22197C4.0775 2.79481 3.73333 3.57175 3.73333 4.38186V5.69095H10.2667ZM7 10.9273C6.6287 10.9273 6.2726 11.0652 6.01005 11.3107C5.7475 11.5562 5.6 11.8892 5.6 12.2364C5.6 12.5836 5.7475 12.9166 6.01005 13.1621C6.2726 13.4076 6.6287 13.5455 7 13.5455C7.3713 13.5455 7.7274 13.4076 7.98995 13.1621C8.2525 12.9166 8.4 12.5836 8.4 12.2364C8.4 11.8892 8.2525 11.5562 7.98995 11.3107C7.7274 11.0652 7.3713 10.9273 7 10.9273ZM7 10.0546C7.61884 10.0546 8.21233 10.2845 8.64992 10.6936C9.0875 11.1028 9.33333 11.6578 9.33333 12.2364C9.33333 12.8151 9.0875 13.37 8.64992 13.7792C8.21233 14.1884 7.61884 14.4182 7 14.4182C6.38116 14.4182 5.78767 14.1884 5.35008 13.7792C4.9125 13.37 4.66667 12.8151 4.66667 12.2364C4.66667 11.6578 4.9125 11.1028 5.35008 10.6936C5.78767 10.2845 6.38116 10.0546 7 10.0546Z" fill="#64D9C5"/>
</svg>
